<svg xmlns="http://www.w3.org/2000/svg" width="42" height="42" viewBox="0 0 42 42">
  <g id="beer-svgrepo-com" transform="translate(0.008 0.008)">
    <g id="그룹_2" data-name="그룹 2" transform="translate(-0.008 -0.008)">
      <g id="그룹_1" data-name="그룹 1" transform="translate(0 0)">
        <circle id="타원_2" data-name="타원 2" cx="21" cy="21" r="21" fill="#c95a5d"/>
      </g>
    </g>
    <path id="패스_15" data-name="패스 15" d="M122.938,56.263,109.6,42.538,95.112,70.905l7.54,7.755c11.242-.095,20.327-9.5,20.327-21.079C122.979,57.138,122.964,56.7,122.938,56.263Z" transform="translate(-80.994 -36.677)" fill="#7c4246"/>
    <g id="그룹_3" data-name="그룹 3" transform="translate(10.849 4.875)">
      <path id="패스_16" data-name="패스 16" d="M93.282,44.186a2.285,2.285,0,1,0,0-4.571c-.032,0-.063,0-.1,0a3.427,3.427,0,0,0-6.149-2.754,2.274,2.274,0,0,0-2.863-.129,3.427,3.427,0,0,0-5.908.817,2.284,2.284,0,1,0-.981,4.347Z" transform="translate(-75 -35.391)" fill="#fff"/>
    </g>
    <g id="그룹_4" data-name="그룹 4" transform="translate(21.181 4.875)">
      <path id="패스_17" data-name="패스 17" d="M156.78,39.618c-.032,0-.063,0-.1,0a3.427,3.427,0,0,0-6.149-2.754,2.269,2.269,0,0,0-1.869-.546v6.707l8.113,1.159a2.285,2.285,0,1,0,0-4.57Z" transform="translate(-148.667 -35.394)" fill="#d0d5d9"/>
    </g>
    <g id="그룹_5" data-name="그룹 5" transform="translate(13.163 12.002)">
      <path id="패스_18" data-name="패스 18" d="M111.114,87.055h-4.422V82.5H90.75v20.538a2.237,2.237,0,0,0,2.237,2.237h11.468a2.237,2.237,0,0,0,2.237-2.237v-4.6h4.422a1.272,1.272,0,0,0,1.272-1.272V88.327A1.272,1.272,0,0,0,111.114,87.055Zm-.335,8.493a.927.927,0,0,1-.927.927h-2.69V89.022h2.69a.927.927,0,0,1,.927.927Z" transform="translate(-90.75 -82.5)" fill="#f0deb4"/>
    </g>
    <g id="그룹_6" data-name="그룹 6" transform="translate(21.261 12.002)">
      <path id="패스_19" data-name="패스 19" d="M161.037,87.055h-4.422V82.5h-7.948v22.776h5.711a2.237,2.237,0,0,0,2.237-2.237v-4.6h4.422a1.272,1.272,0,0,0,1.272-1.272V88.327A1.272,1.272,0,0,0,161.037,87.055Zm-.335,8.493a.927.927,0,0,1-.927.927h-2.69V89.022h2.69a.927.927,0,0,1,.927.927Z" transform="translate(-148.667 -82.5)" fill="#d8c49c"/>
    </g>
    <g id="그룹_7" data-name="그룹 7" transform="translate(13.948 18.781)">
      <path id="패스_20" data-name="패스 20" d="M99.476,145.873H109.6a1.976,1.976,0,0,0,1.976-1.976V131.143H97.5V143.9A1.976,1.976,0,0,0,99.476,145.873Z" transform="translate(-97.5 -131.143)" fill="#ffa800"/>
    </g>
    <g id="그룹_8" data-name="그룹 8" transform="translate(21.115 18.781)">
      <path id="패스_21" data-name="패스 21" d="M148.667,131.143v14.73h5.041a1.976,1.976,0,0,0,1.976-1.976V131.143Z" transform="translate(-148.667 -131.143)" fill="#ce8400"/>
    </g>
  </g>
</svg>
