<svg xmlns="http://www.w3.org/2000/svg" width="42" height="42" viewBox="0 0 42 42">
  <g id="cup-svgrepo-com" transform="translate(0 0)">
    <g id="그룹_21" data-name="그룹 21">
      <g id="그룹_20" data-name="그룹 20">
        <circle id="타원_5" data-name="타원 5" cx="21" cy="21" r="21" transform="translate(0 0)" fill="#c95a5d"/>
      </g>
    </g>
    <path id="패스_31" data-name="패스 31" d="M103.178,102.778l-6.752-6.746c-.348.227-.637.437-.974.353-4.966-.851-11.209-1.277-13.2,3.973-1.845,4.4-1.561,9.791-5.534,13.2-1.464,1.331-3.677.415-5.585.882l9.948,9.948q.512.025,1.029.025a21.071,21.071,0,0,0,21.071-21.071Q103.185,103.057,103.178,102.778Z" transform="translate(-61.185 -82.409)" fill="#7c4246"/>
    <g id="그룹_22" data-name="그룹 22" transform="translate(24.554 12.212)">
      <path id="패스_32" data-name="패스 32" d="M176.807,98.927h-.042a2.561,2.561,0,0,1-2.411-1.141c-.94-1.614.459-4.117,1.694-6.325a14.358,14.358,0,0,0,.924-1.807h0a4.6,4.6,0,0,1,8.743,2.841C184.963,94.81,181.347,98.927,176.807,98.927Zm2.054-8.66a14.422,14.422,0,0,1-1.08,2.163,24.95,24.95,0,0,0-1.427,2.82c-.469,1.2-.292,1.522-.284,1.535.023.039.2.152.706.155h.032c3.721,0,6.564-3.662,7.018-5.06a2.61,2.61,0,0,0-4.964-1.613Z" transform="translate(-174.046 -86.476)" fill="#aec1cf"/>
    </g>
    <g id="그룹_23" data-name="그룹 23" transform="translate(7.828 11.633)">
      <path id="패스_33" data-name="패스 33" d="M78.52,82.5h-22.9A19.6,19.6,0,0,0,60.19,96.219a19.291,19.291,0,0,1,3.539,5.589h6.679a19.294,19.294,0,0,1,3.539-5.589A19.6,19.6,0,0,0,78.52,82.5Z" transform="translate(-55.579 -82.5)" fill="#fff"/>
    </g>
    <g id="그룹_24" data-name="그룹 24" transform="translate(19.515 11.633)">
      <path id="패스_34" data-name="패스 34" d="M149.389,82.5H138.167v19.309h3.11a19.294,19.294,0,0,1,3.539-5.589A19.6,19.6,0,0,0,149.389,82.5Z" transform="translate(-138.167 -82.5)" fill="#d4dadd"/>
    </g>
    <g id="그룹_25" data-name="그룹 25" transform="translate(8.78 30.363)">
      <path id="패스_35" data-name="패스 35" d="M64.641,217.091H81.03a2.341,2.341,0,0,0,2.341-2.341H62.3A2.341,2.341,0,0,0,64.641,217.091Z" transform="translate(-62.3 -214.75)" fill="#d0d5d9"/>
    </g>
    <g id="그룹_26" data-name="그룹 26" transform="translate(19.517 30.363)">
      <path id="패스_36" data-name="패스 36" d="M138.167,214.75v2.341h7.965a2.341,2.341,0,0,0,2.341-2.341Z" transform="translate(-138.167 -214.75)" fill="#bfc2c4"/>
    </g>
  </g>
</svg>
