<svg xmlns="http://www.w3.org/2000/svg" width="97.185" height="85.561" viewBox="0 0 97.185 85.561">
  <g id="completed-checkmark-done-complete-svgrepo-com" transform="translate(-5.256 -8.5)">
    <path id="패스_50" data-name="패스 50" d="M48.026,94.061A42.78,42.78,0,1,1,73.512,16.91a3.641,3.641,0,0,1-4.333,5.844,35.728,35.728,0,1,0,13.89,22.937,3.684,3.684,0,1,1,7.282-1.129,43.419,43.419,0,0,1,.455,6.717,42.817,42.817,0,0,1-42.78,42.78Z" transform="translate(0 0)" fill="#49a879"/>
    <path id="패스_51" data-name="패스 51" d="M40.6,63.613a3.641,3.641,0,0,1-2.567-1.074L20.735,45.245a3.641,3.641,0,0,1,5.134-5.134L40.6,54.821,84.45,10.985a3.641,3.641,0,0,1,5.134,5.134L43.162,62.539A3.641,3.641,0,0,1,40.6,63.613Z" transform="translate(11.981 1.32)" fill="#7289da"/>
  </g>
</svg>
